<mxfile host="app.diagrams.net" modified="2024-04-02T01:57:26.396Z" agent="Mozilla/5.0 (Windows NT 10.0; Win64; x64) AppleWebKit/537.36 (KHTML, like Gecko) Chrome/105.0.0.0 Safari/537.36" version="24.2.1" etag="siXU5AleLJuI6OEsB0bj" type="github">
  <diagram name="第 1 页" id="mfnHZ43y-gHnu4d1nDKd">
    <mxGraphModel>
      <root>
        <mxCell id="0" />
        <mxCell id="1" parent="0" />
      </root>
    </mxGraphModel>
  </diagram>
</mxfile>
